<?xml version="1.0" standalone="no"?>
<!DOCTYPE svg PUBLIC "-//W3C//DTD SVG 20010904//EN"
        "http://www.w3.org/TR/2001/REC-SVG-20010904/DTD/svg10.dtd">
<svg version="1.0" xmlns="http://www.w3.org/2000/svg"
     width="100.000000pt" height="499.000000pt" viewBox="0 0 500.000000 499.000000"
     preserveAspectRatio="xMidYMid meet">

    <g transform="translate(0.000000,499.000000) scale(0.100000,-0.100000)"
       fill="#000000" stroke="none">
        <path d="M2340 4514 c-145 -29 -276 -87 -395 -176 -38 -29 -414 -398 -835
-819 -421 -422 -778 -775 -793 -785 -33 -20 -120 -148 -138 -201 -24 -75 15
-185 86 -239 52 -39 132 -56 193 -40 26 7 59 19 72 26 14 7 119 106 235 220
116 113 233 223 262 243 60 43 152 87 238 112 81 24 275 24 365 1 96 -26 215
-88 305 -162 99 -81 145 -103 213 -104 102 0 197 73 228 177 31 103 3 163
-159 333 -178 188 -218 263 -218 420 0 172 92 341 231 424 92 55 151 71 270
70 119 -1 184 -19 267 -75 26 -18 260 -243 518 -500 455 -452 472 -468 525
-483 154 -45 300 65 300 223 0 108 -2 111 -551 657 -507 503 -555 546 -682
604 -131 59 -190 72 -357 75 -85 2 -166 1 -180 -1z"/>
        <path d="M4497 2704 c-41 -13 -80 -47 -290 -252 -181 -176 -258 -245 -302
-269 -189 -100 -419 -119 -619 -52 -74 25 -210 106 -251 149 -72 76 -178 110
-262 85 -106 -32 -167 -115 -167 -230 0 -63 3 -75 32 -118 18 -26 86 -103 150
-170 129 -135 161 -186 187 -295 46 -188 -27 -386 -184 -504 -153 -116 -344
-134 -521 -51 -72 34 -95 55 -547 507 -285 284 -489 480 -514 494 -50 26 -141
30 -193 8 -53 -22 -111 -81 -131 -132 -21 -55 -16 -142 10 -195 18 -36 807
-834 961 -973 51 -45 124 -102 164 -126 95 -57 239 -105 378 -125 105 -16 119
-16 210 0 181 32 275 67 397 148 74 49 1735 1703 1771 1763 48 81 42 183 -16
262 -54 74 -165 107 -263 76z"/>
    </g>
</svg>
